<?xml version="1.0" encoding="UTF-8" standalone="no"?>
<!-- Created with Inkscape (http://www.inkscape.org/) -->

<svg
   xmlns:dc="http://purl.org/dc/elements/1.1/"
   xmlns:cc="http://creativecommons.org/ns#"
   xmlns:rdf="http://www.w3.org/1999/02/22-rdf-syntax-ns#"
   xmlns:svg="http://www.w3.org/2000/svg"
   xmlns="http://www.w3.org/2000/svg"
   xmlns:sodipodi="http://sodipodi.sourceforge.net/DTD/sodipodi-0.dtd"
   xmlns:inkscape="http://www.inkscape.org/namespaces/inkscape"
   width="210mm"
   height="297mm"
   viewBox="0 0 744.09448819 1052.3622047"
   id="svg2"
   version="1.1"
   inkscape:version="0.91 r13725"
   sodipodi:docname="logo.svg">
  <defs
     id="defs4" />
  <sodipodi:namedview
     id="base"
     pagecolor="#ffffff"
     bordercolor="#666666"
     borderopacity="1.0"
     inkscape:pageopacity="0.0"
     inkscape:pageshadow="2"
     inkscape:zoom="5.6"
     inkscape:cx="159.68418"
     inkscape:cy="980.32967"
     inkscape:document-units="px"
     inkscape:current-layer="layer1-3"
     showgrid="false"
     inkscape:window-width="1844"
     inkscape:window-height="1050"
     inkscape:window-x="76"
     inkscape:window-y="30"
     inkscape:window-maximized="1" />
  <metadata
     id="metadata7">
    <rdf:RDF>
      <cc:Work
         rdf:about="">
        <dc:format>image/svg+xml</dc:format>
        <dc:type
           rdf:resource="http://purl.org/dc/dcmitype/StillImage" />
        <dc:title></dc:title>
      </cc:Work>
    </rdf:RDF>
  </metadata>
  <g
     inkscape:label="Layer 1"
     inkscape:groupmode="layer"
     id="layer1">
    <g
       id="layer1-3"
       inkscape:label="Layer 1"
       transform="matrix(0.9781259,0.20801374,-0.20801374,0.9781259,-47.627992,-71.506299)">
      <g
         id="text3346"
         style="font-style:normal;font-weight:normal;font-size:64.75823975px;line-height:125%;font-family:sans-serif;letter-spacing:0px;word-spacing:0px;fill:#000000;fill-opacity:1;stroke:none;stroke-width:1px;stroke-linecap:butt;stroke-linejoin:miter;stroke-opacity:1"
         transform="matrix(0.9762581,0,0,1.0243193,-0.17857143,9.8214286)"
         inkscape:export-xdpi="90"
         inkscape:export-ydpi="90">
        <g
           transform="scale(1.0243193,0.97625809)"
           style="font-style:normal;font-weight:normal;font-size:40px;line-height:125%;font-family:sans-serif;letter-spacing:0px;word-spacing:0px;fill:#000000;fill-opacity:1;stroke:none;stroke-width:1px;stroke-linecap:butt;stroke-linejoin:miter;stroke-opacity:1"
           id="text3384">
          <path
             d="m 123.07732,96.124783 q 0,-0.56 0.52,-1.36 0.52,-0.8 0.96,-0.8 0.52,0 1.2,-0.96 0.64,-0.96 3.92,-1.32 4.2,-0.4 5.52,-0.4 1.68,0 4.12,0.44 7,1.2 9.84,3.56 2.84,2.32 2.84,7.039997 0,4.2 -1.44,7.96 -1.4,3.76 -3.64,6.28 -2.24,2.52 -4.72,4.2 -2.48,1.64 -4.84,2.2 -1,0.24 -1.48,0.76 -0.48,0.56 -0.52,1.04 -0.04,0.48 -0.4,0.84 -0.32,0.4 -1.08,0.4 -1.24,0 -1.24,-0.48 0,-0.28 -0.32,-0.48 -0.32,-0.2 -0.72,-0.32 -0.36,-0.12 -0.68,-0.52 -0.32,-0.4 -0.32,-1.04 0,-1.08 0.76,-1.36 0.76,-0.28 0.76,-3.4 0,-1.64 -0.2,-3.32 -0.2,-1.72 -0.68,-5.16 -0.44,-3.48 -0.84,-7.68 l -0.64,-6.919997 -1.44,0.12 q -0.92,0.08 -1.76,0.68 -0.84,0.56 -1.36,1.08 -0.52,0.52 -0.8,0.52 -0.28,0 -0.8,-0.56 -0.52,-0.6 -0.52,-1.04 z m 9.56,0.12 q 0,1.24 1.12,9.399997 1.16,8.16 1.16,10.64 0,0.8 -0.08,1.6 l -0.32,2.04 2.16,0 q 3.56,0 8.08,-5.04 2.56,-2.88 3.44,-5.8 0.92,-2.92 0.92,-7.12 0,-1.76 -0.28,-2.439997 -0.24,-0.68 -1.16,-1.72 -0.92,-1 -2.08,-1.48 -1.16,-0.48 -3.8,-1 -4.8,-0.8 -7.24,-0.8 -1.12,0 -1.52,0.28 -0.4,0.28 -0.4,1.44 z"
             style="font-style:normal;font-variant:normal;font-weight:normal;font-stretch:normal;font-family:Purisa;-inkscape-font-specification:Purisa"
             id="path3395"
             inkscape:connector-curvature="0" />
          <path
             d="m 162.71464,87.00764 q 1.36,0 2.52,-0.48 1.2,-0.48 3.36,-0.48 1.72,0 2.36,0.28 0.68,0.24 0.68,1 0,0.68 -0.92,1 -0.88,0.28 -4.32,0.92 -2.68,0.52 -4.48,0.88 l -4.04,0.84 0,3.2 q 0,3.239997 0.28,4.919997 l 0.28,1.760003 2.56,-0.28 q 2.28,-0.32 4.68,-0.32 3.08,0 3.08,0.6 0,0.56 -1.88,1.28 -1.88,0.72 -4.72,1.24 l -3.36,0.6 0.32,6.36 q 0.12,2.4 0.12,3.84 0,1.76 -0.24,2.4 -0.2,0.64 -0.76,0.64 -0.36,0 -0.8,-0.16 -0.6,-0.16 -0.76,-0.76 -0.16,-0.6 -0.16,-2.52 0,-1.84 -0.72,-7.12 -0.68,-5.32 -0.68,-10.800003 l 0,-6.759997 2.92,-1.04 q 2.96,-1.04 4.68,-1.04 z"
             style="font-style:normal;font-variant:normal;font-weight:normal;font-stretch:normal;font-family:Purisa;-inkscape-font-specification:Purisa"
             id="path3397"
             inkscape:connector-curvature="0" />
        </g>
      </g>
    </g>
  </g>
</svg>
